<svg width="1440" height="298" viewBox="0 0 1440 298" fill="none" xmlns="http://www.w3.org/2000/svg">
<rect width="1440" height="298" fill="#F4F6F8"/>
<path d="M1114.6 152.988C1113.11 188.668 1192.31 231.7 1234.64 193.527C1276.97 155.354 1238.25 88.6093 1193.25 124.479C1166.65 145.68 1155.17 183.051 1202.9 259.86" stroke="#FFBB14" stroke-width="30"/>
<path d="M859.062 218.601C829.448 199.337 779.194 154.427 815.094 128.897C859.968 96.9842 865.64 205.965 907.756 177.636C949.871 149.308 849.488 100.305 886.921 72.3718C924.059 44.659 951.232 102.871 964.108 139.732" stroke="#FF9A61" stroke-width="30"/>
<path d="M1450.5 42.1579C1428.25 41.6669 1356.03 74.2655 1387.08 144.965C1415.94 210.693 1561.08 198.477 1534.35 114.84C1519 66.8362 1473.19 79.488 1459.35 88.4903" stroke="#FF9A61" stroke-width="30"/>
<circle cx="646.5" cy="84.5" r="7.5" fill="#565A5B"/>
<circle cx="1038.5" cy="237.5" r="7.5" fill="#565A5B"/>
<path d="M690 251.5C696.833 251.667 710.6 251 711 247M750 137C748.5 134.5 745.5 128.3 745.5 123.5M1061.5 97.5C1063.33 95 1067 89.4 1067 87M1238 42.5C1239.67 46.6667 1243.8 55.7 1247 58.5M496 63L505 68.5M1306 251.5C1308.17 249.667 1312.5 245.3 1312.5 242.5M1395.5 207L1411 218.5" stroke="black"/>
</svg>
